<svg
  width="256"
  height="300"
  viewBox="0 0 256 300"
  xmlns="http://www.w3.org/2000/svg"
>
  <!-- Eye outline -->
  <path
    d="M28 128C66 92 190 92 228 128C190 164 66 164 28 128Z"
    fill="none"
    stroke="#14B8A6"
    stroke-width="8"
    stroke-linecap="round"
    stroke-linejoin="round"
  />

  <!-- Inner eye -->
  <path
    d="M54 128C86 106 170 106 202 128C170 150 86 150 54 128Z"
    fill="none"
    stroke="#14B8A6"
    stroke-width="5"
    opacity="0.7"
  />

  <!-- Iris outer -->
  <circle
    cx="128"
    cy="128"
    r="30"
    fill="none"
    stroke="#14B8A6"
    stroke-width="5"
  />

  <!-- Iris middle -->
  <circle
    cx="128"
    cy="128"
    r="22"
    fill="none"
    stroke="#14B8A6"
    stroke-width="3"
    opacity="0.7"
  />

  <!-- Iris inner -->
  <circle
    cx="128"
    cy="128"
    r="14"
    fill="none"
    stroke="#14B8A6"
    stroke-width="2"
    opacity="0.5"
  />

  <!-- Radar sweep -->
  <line
    x1="128"
    y1="128"
    x2="156"
    y2="100"
    stroke="#14B8A6"
    stroke-width="4"
    stroke-linecap="round"
  />

  <!-- Scan ticks -->
  <line x1="128" y1="94" x2="128" y2="100" stroke="#14B8A6" stroke-width="2"/>
  <line x1="128" y1="156" x2="128" y2="162" stroke="#14B8A6" stroke-width="2"/>
  <line x1="94" y1="128" x2="100" y2="128" stroke="#14B8A6" stroke-width="2"/>
  <line x1="156" y1="128" x2="162" y2="128" stroke="#14B8A6" stroke-width="2"/>

  <!-- Partial radar arc -->
  <path
    d="M150 98A34 34 0 0 1 166 128"
    fill="none"
    stroke="#14B8A6"
    stroke-width="3"
    opacity="0.6"
    stroke-linecap="round"
  />

  <!-- Pupil -->
  <circle cx="128" cy="128" r="5" fill="#14B8A6"/>

  <!-- Logotype -->
  <text
    x="128"
    y="240"
    text-anchor="middle"
    font-size="32"
    font-family="Inter, system-ui, -apple-system, BlinkMacSystemFont, sans-serif"
    font-weight="600"
    letter-spacing="1"
    fill="#14B8A6"
  >
    dixcover
  </text>
</svg>
